<?xml version="1.0" encoding="UTF-8" standalone="no"?>
<!-- Created with Inkscape (http://www.inkscape.org/) -->

<svg
   xmlns:dc="http://purl.org/dc/elements/1.1/"
   xmlns:cc="http://creativecommons.org/ns#"
   xmlns:rdf="http://www.w3.org/1999/02/22-rdf-syntax-ns#"
   xmlns:svg="http://www.w3.org/2000/svg"
   xmlns="http://www.w3.org/2000/svg"
   xmlns:sodipodi="http://sodipodi.sourceforge.net/DTD/sodipodi-0.dtd"
   xmlns:inkscape="http://www.inkscape.org/namespaces/inkscape"
   width="200mm"
   height="200mm"
   viewBox="0 0 200 200"
   version="1.1"
   id="svg8"
   inkscape:version="0.92.2 5c3e80d, 2017-08-06"
   sodipodi:docname="logo.svg">
  <defs
     id="defs2" />
  <sodipodi:namedview
     id="base"
     pagecolor="#ffffff"
     bordercolor="#666666"
     borderopacity="1.0"
     inkscape:pageopacity="0.0"
     inkscape:pageshadow="2"
     inkscape:zoom="1.4"
     inkscape:cx="474.2452"
     inkscape:cy="350.38206"
     inkscape:document-units="mm"
     inkscape:current-layer="layer1"
     showgrid="false"
     inkscape:window-width="2560"
     inkscape:window-height="1415"
     inkscape:window-x="1920"
     inkscape:window-y="0"
     inkscape:window-maximized="1" />
  <metadata
     id="metadata5">
    <rdf:RDF>
      <cc:Work
         rdf:about="">
        <dc:format>image/svg+xml</dc:format>
        <dc:type
           rdf:resource="http://purl.org/dc/dcmitype/StillImage" />
        <dc:title></dc:title>
      </cc:Work>
    </rdf:RDF>
  </metadata>
  <g
     inkscape:label="Layer 1"
     inkscape:groupmode="layer"
     id="layer1"
     transform="translate(0,-97)">
    <path
       sodipodi:type="spiral"
       style="fill:none;fill-rule:evenodd;stroke:#000000;stroke-width:0.27223134"
       id="path1768"
       sodipodi:cx="101.58112"
       sodipodi:cy="197.69633"
       sodipodi:expansion="0.63999999"
       sodipodi:revolution="40"
       sodipodi:radius="85.143097"
       sodipodi:argument="-250.54201"
       sodipodi:t0="0"
       d="m 101.58112,197.69633 c 1.65869,1.65871 -0.8384,2.97054 -2.338837,2.33881 -2.335254,-0.98321 -2.566864,-4.07719 -1.305794,-5.98349 1.849913,-2.79642 5.821971,-3.01785 8.369161,-1.07978 3.26502,2.48424 3.46969,7.31906 0.95501,10.40408 -3.02583,3.71212 -8.662738,3.90243 -12.231046,0.87181 -4.136241,-3.51298 -4.314896,-9.89913 -0.810758,-13.91379 3.962554,-4.53986 11.054674,-4.70897 15.488014,-0.76327 4.92571,4.3839 5.08684,12.14626 0.72485,16.97635 -4.7829,5.29615 -13.185473,5.45051 -18.394275,0.69284 -5.653136,-5.16353 -5.801665,-14.18067 -0.665594,-19.75296 5.528686,-5.99826 15.138139,-6.14169 21.060829,-0.642 6.33283,5.88053 6.47174,16.06277 0.62128,22.32439 -6.22076,6.65795 -16.958448,6.79284 -23.54887,0.60289 -6.974519,-6.55071 -7.105786,-17.82832 -0.586387,-24.73846 6.871477,-7.28333 18.674977,-7.41131 25.896657,-0.57148 7.58503,7.18396 7.71001,19.50061 0.5579,27.02639 -7.48892,7.88019 -20.307047,8.00242 -28.130114,0.54546 -8.169327,-7.78701 -8.289014,-21.09588 -0.534016,-29.20998 8.078777,-8.45286 21.86848,-8.5702 30.26782,-0.52342 8.73119,8.3647 8.84633,22.62603 0.51358,31.30523 -8.64521,9.00465 -23.36959,9.11775 -32.323652,0.50441 -9.273536,-8.92066 -9.384724,-24.10008 -0.49582,-33.32432 9.191391,-9.53813 24.818332,-9.64752 34.308352,-0.48776 9.79868,9.4577 9.90638,25.52509 0.48017,35.27675 -9.71983,10.05541 -26.221009,10.16151 -36.230405,0.47301 -10.308524,-9.97804 -10.413107,-26.9067 -0.466236,-37.17014 10.232534,-10.5582 27.582691,-10.66135 38.096691,-0.45981 10.80461,10.4835 10.90639,28.2495 0.45371,39.01073 -10.73113,11.0479 -28.907581,11.14838 -39.912873,0.4479 -11.288233,-10.97558 -11.387475,-29.55734 -0.442369,-40.80369 11.217004,-11.52572 30.199172,-11.62378 41.683692,-0.43708 11.7605,11.45553 11.85743,30.83341 0.43202,42.55336 -11.69128,11.99268 -31.460403,12.08852 -43.413138,0.42718 C 67.438308,207.6921 67.343508,187.53605 79.238134,175.35305 91.3931,162.9034 111.93196,162.8096 124.34279,174.93497 c 12.67463,12.3831 12.76747,33.3008 0.41379,45.93713 -12.60888,12.89739 -33.901607,12.98931 -46.761205,0.40967 -13.118008,-12.83242 -13.209029,-34.4965 -0.405689,-47.57719 13.053782,-13.33657 35.085664,-13.42673 48.385374,-0.40186 13.55313,13.27305 13.64246,35.66933 0.39815,49.18604 -13.49029,13.76776 -36.247656,13.85629 -49.979422,0.39457 -13.980537,-13.70559 -14.068288,-36.82085 -0.39112,-50.76579 13.918997,-14.19151 37.389072,-14.27851 51.545372,-0.38777 14.40073,14.13057 14.487,37.95247 0.38453,52.31836 -14.34039,14.60826 -38.511212,14.69383 -53.084993,0.38139 -14.814142,-14.54848 -14.899025,-39.06542 -0.378343,-53.84544 14.75492,-15.01843 39.615256,-15.10265 54.599896,-0.37538 15.22117,14.95974 15.30474,40.16083 0.37251,55.34852 -15.163,15.42241 -40.70226,15.50536 -56.091503,0.36972 -15.622177,-15.36472 -15.704513,-41.23967 -0.367007,-56.82898 15.564979,-15.82052 41.77317,-15.90226 57.56112,-0.36437 16.01748,15.76379 16.09865,42.30287 0.3618,58.28806 -15.9612,16.21308 -42.828865,16.29369 -59.009931,0.35929 -16.407371,-16.15725 -16.487424,-43.35124 -0.356852,-59.72686 16.351964,-16.60038 43.870113,-16.6799 60.438993,-0.35448 16.79212,16.54539 16.87112,44.38556 0.35215,61.14644 -16.73754,16.98265 -44.897645,17.06114 -61.849292,0.34989 -17.171985,-16.92847 -17.249976,-45.40648 -0.347679,-62.5477 17.118179,-17.36015 45.912121,-17.43766 63.241731,-0.34552 17.54718,17.30672 17.62421,46.41465 0.34341,63.93152 -17.49411,17.73309 -46.914135,17.80966 -64.61713,0.34134 -17.917917,-17.68038 -17.994031,-47.41065 -0.339334,-65.29868 17.865555,-18.10168 47.904264,-18.17735 65.976254,-0.33736 18.2844,18.04965 18.35963,48.39502 0.33544,66.64994 -18.2327,18.46608 -48.883008,18.54089 -67.319813,0.33354 -18.646783,-18.41472 -18.721179,-49.36826 -0.331695,-67.98595 18.595731,-18.8265 49.850848,-18.90049 68.648448,-0.32989 19.00525,18.77576 19.07884,50.33082 0.3281,69.30736 -18.95481,19.18308 -50.80823,19.25627 -69.962762,0.32637 -19.359969,-19.13293 -19.432783,-51.28314 -0.324664,-70.61474 19.310116,-19.53596 51.755576,-19.6084 71.263346,-0.32299 19.71106,19.48639 19.78313,52.22561 0.32135,71.90864 -19.66177,19.8853 -52.693272,19.95701 -72.550703,0.31974 -20.058679,-19.83627 -20.130029,-53.1586 -0.318163,-73.18957 20.009925,-20.23122 53.621666,-20.30223 73.825336,-0.31662 20.40294,20.18273 20.4736,54.08249 0.31509,74.45803 -20.3547,20.57385 -54.54111,20.64417 -75.087709,0.31359 -20.743961,-20.52586 -20.813952,-54.99757 -0.312124,-75.71443 20.696223,-20.91329 55.451913,-20.98296 76.338253,-0.31068 21.08186,20.8658 21.15121,55.90417 0.30926,76.95922 -21.0346,21.24967 -56.354381,21.3187 -77.577377,0.30787 -21.416743,-21.20265 -21.485466,-56.80258 -0.306495,-78.19278 21.369948,-21.58309 57.248792,-21.65151 78.805472,-0.30515 21.7487,21.53651 21.81682,57.69306 0.30382,79.41549 -21.70236,21.91362 -58.135416,21.98145 -80.02289,0.30251 -22.077843,-21.86749 -22.14538,-58.57588 -0.301228,-80.6277 22.031925,-22.24138 59.014488,-22.30863 81.229968,-0.29996 22.40425,22.19567 22.47122,59.45127 0.29872,81.82974 -22.35874,22.56645 -59.886259,22.63314 -82.427049,0.29749 -22.727993,-22.52114 -22.794416,-60.31947 -0.296286,-83.02193 22.682895,-22.8889 60.750955,-22.95505 83.614425,-0.2951 23.04917,22.844 23.11507,61.18071 0.29393,84.20458 -23.00446,23.20881 -61.608777,23.27444 -84.792397,0.29277 -23.367847,-23.1643 -23.433223,-62.03518 -0.291634,-85.37794 23.323518,-23.52627 62.459931,-23.5914 85.961231,-0.29051 23.6841,23.48212 23.74897,62.88307 0.28941,86.5423 -23.64014,23.84134 -63.30462,23.90597 -87.121193,0.28832 -23.997997,-23.79756 -24.062383,-63.72459 -0.287245,-87.69792 23.95439,-24.15409 64.143008,-24.21823 88.272528,-0.28619 24.3096,24.11065 24.37351,64.5599 0.28514,88.84504 -24.26634,24.46456 -64.975278,24.52824 -89.415478,0.28411 -24.618974,-24.42147 -24.682424,-65.38917 -0.283094,-89.98388 24.57605,-24.77285 65.801592,-24.83607 90.550272,-0.28209 24.92617,24.73008 24.98918,66.21257 0.2811,91.11467 -24.88358,25.07898 -66.622119,25.14176 -91.677118,0.28012 -25.231264,-25.03654 -25.293828,-67.03025 -0.279159,-92.23762 25.188984,-25.38303 67.436997,-25.44538 92.796227,-0.27821 25.53429,25.34091 25.59643,67.84236 0.27726,93.35294 -25.49232,25.68505 -68.246363,25.74698 -93.907789,0.27634 -25.835309,-25.64323 -25.897029,-68.64904 -0.27542,-94.46081 25.793639,-25.98508 69.050379,-26.0466 95.012009,-0.27451 26.13437,25.94355 26.19568,69.45041 0.27362,95.56141 -26.09299,26.28318 -69.849158,26.34429 -96.109052,0.27274 -26.431513,-26.24195 -26.492431,-70.24663 -0.271863,-96.65494 26.390423,-26.57938 70.642835,-26.64011 97.199095,-0.271 26.72679,26.53843 26.78732,71.03779 0.27015,97.74154 -26.68598,26.87375 -71.431523,26.93409 -98.282308,0.26931 -27.020247,-26.83307 -27.080401,-71.82403 -0.268471,-98.8214 26.979708,-27.1663 72.215339,-27.22627 99.358839,-0.26765 27.31192,27.1259 27.37171,72.60546 0.26684,99.89466 -27.27165,27.4571 -72.99441,27.5167 -100.428859,0.26603 -27.601854,-27.41696 -27.661277,-73.38219 -0.265234,-100.96147 27.56184,-27.74618 73.768823,-27.80542 101.492493,-0.26444 27.89008,27.70629 27.94915,74.15431 0.26367,102.02196 -27.85032,28.03358 -74.538691,28.09247 -102.5499,0.2629 -28.176648,-27.99393 -28.235372,-74.92195 -0.262137,-103.07631 28.137134,-28.31931 75.304117,-28.37787 103.601207,-0.26138 28.46158,28.27993 28.51997,75.68519 0.26064,104.12462 -28.42231,28.60345 -76.065185,28.66166 -104.646549,0.2599 -28.744921,-28.5643 -28.802976,-76.44412 -0.259171,-105.16702 28.705886,-28.886 76.82199,-28.9439 105.68605,-0.25845 29.02669,28.84708 29.08442,77.19883 0.25773,106.20364 -28.98789,29.16701 -77.574635,29.22458 -106.719826,0.25703 -29.306943,-29.12832 -29.364356,-77.94942 -0.256326,-107.23461 29.268368,-29.4465 78.323192,-29.50376 107.748002,-0.25563 29.58569,29.40804 29.64279,78.69596 0.25495,108.26002 C 126.29127,281.67906 76.770864,281.736 47.067918,252.20881 17.204949,222.52254 17.148153,172.77027 46.814323,142.9288 76.639156,112.92774 126.6227,112.87109 156.60232,142.67587 c 30.13881,29.96304 30.1953,80.17724 0.25227,110.29467 -30.10088,30.27619 -80.545158,30.33254 -110.800029,0.25162 -30.413231,-30.23838 -30.469435,-80.91213 -0.25097,-111.3041 30.375518,-30.54992 81.278169,-30.60598 111.806889,-0.25033 30.68627,30.51231 30.74218,81.64328 0.24969,112.30841 -30.64876,30.82227 -82.007479,30.87805 -112.808668,0.24906 -30.95795,-30.78487 -31.013583,-82.37077 -0.248443,-113.30769 30.920642,-31.09329 82.733161,-31.14878 113.805471,-0.24782 31.2283,31.05607 31.28365,83.09466 0.24722,114.30203 -31.19119,31.36298 -83.455284,31.4182 -114.797394,0.24661 -31.49733,-31.32596 -31.552413,-83.81502 -0.246008,-115.29154 31.460412,-31.63137 84.173902,-31.68631 115.784512,-0.24542 31.76508,31.59455 31.81989,84.53193 0.24482,116.2763 -31.72835,31.89848 -84.889088,31.95316 -116.766916,0.24424 C 11.0432,224.34007 10.988647,170.9565 42.831104,138.94553 74.826126,106.78119 128.43201,106.72677 160.5758,138.70244 c 32.29681,32.12789 32.35111,85.95557 0.24252,118.23188 -32.26045,32.42897 -86.309404,32.48314 -118.717933,0.24196 C 9.539554,224.78357 9.4855132,170.51385 41.858993,137.97341 c 32.524654,-32.6924 87.014647,-32.74631 119.686697,-0.24084 32.82366,32.6563 32.87745,87.36606 0.24029,120.16943" />
    <g
       transform="matrix(0.11261981,0,0,0.11261981,59.716248,134.61142)"
       inkscape:label="Layer 2"
       id="layer2">
      <g
         id="g4237">
        <path
           style="fill:#508227;fill-opacity:1;fill-rule:evenodd;stroke:#000000;stroke-width:6;stroke-linecap:butt;stroke-linejoin:miter;stroke-miterlimit:4;stroke-dasharray:none;stroke-opacity:1"
           d="m 387.89858,600.82402 c 0,0 -10.50842,7.82902 -16.16244,11.11167 -9.37726,5.44432 -18.86557,11.17353 -29.29443,14.14214 -12.37439,3.52241 -25.53025,4.55814 -38.38579,4.04061 -10.95386,-0.44097 -26.93928,1.80928 -35.53918,-4.98948 -2.60152,-2.05666 -4.39927,-4.91628 -2.84663,-7.84664 8.00905,-15.11574 37.05213,-4.11852 52.52794,-11.40754 20.75001,-9.77313 38.03549,-26.66902 52.52793,-44.44671 10.66332,-13.08055 18.791,-28.47562 24.24367,-44.44671 5.50882,-16.13555 8.08122,-50.50763 8.08122,-50.50763 0,0 -36.17275,24.34882 -56.56855,31.31473 -25.14676,8.58854 -52.21915,12.22963 -78.7919,12.12183 -12.62119,-0.0512 -25.06546,-3.27587 -37.37564,-6.06092 -30.45087,-6.8892 -62.42903,-11.43609 -89.90358,-26.26396 -10.50987,-5.67212 -27.27411,-23.23351 -27.27411,-23.23351 0,0 8.69724,-45.4165 19.19289,-65.65992 9.70613,-18.72064 24.53855,-34.53321 39.39595,-49.49747 7.92895,-7.98598 16.24507,-16.08819 26.26397,-21.21321 23.9256,-12.23878 77.78174,-21.2132 77.78174,-21.2132 0,0 64.08768,-3.09224 94.95434,4.04061 25.41657,5.87341 51.05863,15.39078 71.72083,31.31473 22.78403,17.5592 41.27005,41.66229 53.53809,67.68022 11.60459,24.6109 15.40286,52.65006 17.17259,79.80205 1.3404,20.56502 -0.75808,41.46268 -5.05076,61.61931 -2.75057,12.91552 -7.98037,25.2168 -13.13198,37.37564 -5.58089,13.17202 -12.09747,25.96391 -19.1929,38.3858 -3.38167,5.92026 -11.45392,10.36318 -11.11168,17.17259 0.10823,2.15333 2.0653,4.18665 4.04061,5.05076 8.65976,3.78827 19.39046,-5.2207 28.28427,-2.0203 9.63597,3.46747 18.02722,11.87148 22.22336,21.2132 3.86558,8.60579 -1.75211,19.26362 1.01015,28.28427 0.93009,3.03737 2.457,6.24734 5.05076,8.08122 2.5348,1.7922 6.07453,2.7523 9.09138,2.02031 12.77847,-3.1005 18.8174,-18.8548 30.30457,-25.25381 3.72082,-2.07271 8.258,-5.83266 12.12183,-4.04062 4.9349,2.2888 6.47183,9.72799 6.06092,15.15229 -1.50494,19.8664 -16.98717,36.69937 -30.30458,51.51778 -8.68794,9.66716 -18.66495,20.2473 -31.31473,23.23351 -11.3143,2.67094 -24.50261,0.12545 -34.34518,-6.06091 -11.23457,-7.06128 -10.42622,-28.85353 -23.23351,-32.32489 -19.20475,-5.20537 -35.73452,17.76582 -54.54824,24.24367 -11.8142,4.06781 -24.32397,12.42668 -36.36549,9.09137 -15.60301,-4.32178 -29.27344,-18.9696 -34.34519,-34.34519 -7.14535,-21.66192 5.64661,-45.30951 10.10153,-67.68022 2.16918,-10.89269 -1.38138,-15.85239 5.40265,-24.64631 7.27157,-9.4259 33.9933,-24.85116 33.9933,-24.85116 z"
           id="path4190"
           inkscape:connector-curvature="0"
           sodipodi:nodetypes="csssssssscsssscssscssssssssssssssssssssssssssc" />
        <path
           style="fill:#ffffff;fill-rule:evenodd;stroke:#000000;stroke-width:6;stroke-linecap:butt;stroke-linejoin:miter;stroke-miterlimit:4;stroke-dasharray:none;stroke-opacity:1"
           d="m 361.63461,239.18941 c -19.49215,-0.81747 -37.96792,6.42765 -53.53808,18.18274 -11.12559,8.39955 -19.43095,24.72807 -22.22336,38.3858 -3.61527,17.68239 -0.77741,33.07628 10.10153,47.47717 9.36497,12.39679 25.01068,21.14446 40.4061,23.23351 22.74033,3.0857 48.30406,-3.41273 66.67007,-17.1726 13.17134,-9.868 22.06499,-29.04052 23.2335,-45.45686 1.24316,-17.46513 -6.17827,-32.71055 -18.18274,-45.45687 -11.56352,-12.27812 -29.61568,-18.48617 -46.46702,-19.19289 z"
           id="path4188"
           inkscape:connector-curvature="0"
           sodipodi:nodetypes="sssssssss" />
        <path
           style="fill:#ffffff;fill-rule:evenodd;stroke:#000000;stroke-width:6;stroke-linecap:butt;stroke-linejoin:miter;stroke-miterlimit:4;stroke-dasharray:none;stroke-opacity:1"
           d="m 235.36554,224.03712 c -16.2728,0.22061 -33.34882,8.29971 -44.44671,20.20305 -12.49673,13.40371 -19.65682,33.19805 -19.1929,51.51778 0.47345,18.69623 8.85358,38.44023 22.22336,51.51778 9.61039,9.40032 23.93503,14.87713 37.37564,15.15229 18.95415,0.38804 40.50438,-5.4258 53.53809,-19.1929 11.35261,-11.99141 14.50324,-30.96822 14.14213,-47.47717 -0.4052,-18.52421 -5.52226,-38.99934 -18.18274,-52.52793 -11.23848,-12.00909 -29.01084,-19.41586 -45.45687,-19.1929 z"
           id="path4186"
           inkscape:connector-curvature="0"
           sodipodi:nodetypes="sssssssss" />
        <path
           style="fill:none;fill-rule:evenodd;stroke:#000000;stroke-width:6;stroke-linecap:butt;stroke-linejoin:miter;stroke-miterlimit:4;stroke-dasharray:none;stroke-opacity:1"
           d="m 323.57143,312.3622 c 0,0 9.00938,-25.40665 19.28571,-24.28571 10.79738,1.17777 14.28572,29.28571 14.28572,29.28571"
           id="path4202"
           inkscape:connector-curvature="0"
           sodipodi:nodetypes="csc" />
        <path
           style="fill:none;fill-rule:evenodd;stroke:#000000;stroke-width:6;stroke-linecap:butt;stroke-linejoin:miter;stroke-miterlimit:4;stroke-dasharray:none;stroke-opacity:1"
           d="m 230.71429,304.50506 c 0,0 10.067,-20.88676 19.28571,-20 10.45227,1.00542 17.14286,26.42857 17.14286,26.42857 v 0"
           id="path4200"
           inkscape:connector-curvature="0"
           sodipodi:nodetypes="cacc" />
        <path
           inkscape:connector-curvature="0"
           style="fill:#6b4849;fill-opacity:1;fill-rule:evenodd;stroke:#000000;stroke-width:6;stroke-linecap:butt;stroke-linejoin:miter;stroke-miterlimit:4;stroke-dasharray:none;stroke-opacity:1"
           d="m 468.10547,356.6543 c -5.52827,3.43782 -11.49208,7.40095 -15.24805,10.70703 -7.73475,6.80828 -16.16658,14.00753 -20,23.57226 -4.5252,11.29078 -8.28234,25.92715 -2.14258,36.42774 5.48236,9.37626 18.70219,11.84351 29.28516,14.28711 10.20762,2.35693 21.02699,1.25502 31.42773,0 4.57741,-0.55234 10.78931,-1.94644 16.7168,-3.45117 -2.61879,-13.28592 -6.43771,-26.25843 -12.16015,-38.39454 -7.24936,-15.37436 -16.68333,-30.06645 -27.87891,-43.14843 z"
           id="path4204" />
        <path
           inkscape:connector-curvature="0"
           style="fill:#6b4849;fill-opacity:1;fill-rule:evenodd;stroke:#000000;stroke-width:6;stroke-linecap:butt;stroke-linejoin:miter;stroke-miterlimit:4;stroke-dasharray:none;stroke-opacity:1"
           d="m 508.53906,484.31055 c -7.48062,0.0324 -15.18362,0.43123 -20.68164,1.62304 -9.89963,2.14595 -20.29495,5.40338 -27.85742,12.14258 -6.372,5.67833 -10.31114,13.99628 -12.85742,22.14258 -1.78148,5.69947 -3.30331,12.18822 -1.42774,17.85742 1.58993,4.8058 8.27181,13.16768 12.14258,16.42969 7.68136,6.47331 14.09263,7.38414 23.57031,10.71289 4.59359,1.61335 11.44031,2.6089 17.7793,3.24609 3.61623,-8.87842 6.91072,-17.89757 8.90039,-27.24023 3.96342,-18.61054 6.04828,-37.85198 5.29102,-56.88086 -1.59714,-0.0237 -3.21502,-0.0403 -4.85938,-0.0332 z"
           id="path4207" />
        <path
           inkscape:connector-curvature="0"
           style="fill:#6b4849;fill-opacity:1;fill-rule:evenodd;stroke:#000000;stroke-width:6;stroke-linecap:butt;stroke-linejoin:miter;stroke-miterlimit:4;stroke-dasharray:none;stroke-opacity:1"
           d="m 492.70703,636.48828 c -7.4941,0.004 -15.77152,5.3069 -22.83594,3.14258 -2.23013,4.57362 -4.41587,10.17191 -4.15625,14.16016 0.3876,5.95404 4.34536,11.65348 9.28516,15 4.96334,3.36248 11.14807,2.9403 17.14258,2.85742 6.49811,-0.0898 13.24116,-0.46918 19.28515,-2.85742 2.66247,-1.05206 5.98223,-3.16466 9.07813,-5.37696 -0.17682,-1.72588 -0.56535,-3.4049 -1.28711,-5.01172 -4.19614,-9.34172 -12.58864,-17.74542 -22.22461,-21.21289 -1.38966,-0.50006 -2.82267,-0.70187 -4.28711,-0.70117 z"
           id="path4210" />
        <path
           style="fill:#cf2257;fill-opacity:1;fill-rule:evenodd;stroke:#000000;stroke-width:6;stroke-linecap:butt;stroke-linejoin:miter;stroke-miterlimit:4;stroke-dasharray:none;stroke-opacity:1"
           d="m 282.17578,532.38672 c -8.62262,0.0531 -17.24484,0.38841 -25.74805,0.68945 -17.56617,0.62189 -35.38512,2.55224 -52.14257,7.85742 -17.76489,5.62413 -36.24031,12.43445 -50,25 -8.68461,7.93092 -15.6223,18.61443 -18.57032,30 -1.25472,4.84586 -1.5195,10.51969 0.71289,15 2.93661,5.89366 17.09443,-5.09235 31.42941,-9.28515 10.06514,-2.94393 31.42802,-5.36167 31.42802,-1.42969 0,0 -13.59978,6.65508 -17.14258,12.85742 -4.27752,7.48861 -5.98132,17.67634 -2.85742,25.71485 1.83358,4.71822 6.38986,10.47309 11.42968,10 11.14402,-1.04609 13.28969,-18.05237 20.71289,-26.42969 7.36926,-8.31645 14.0633,-17.82149 23.57227,-23.57031 16.43343,-9.93512 35.96049,-14.64032 55,-17.14258 11.57683,-1.52148 23.50764,-0.63713 35,1.42773 5.29401,0.95119 12.96383,3.44857 19.31445,5.70899 9.71128,-8.17653 18.48297,-17.63084 26.41211,-27.35743 0.34155,-0.41896 0.67343,-0.84587 1.00977,-1.26953 -9.04783,-6.8732 -23.61438,-17.18814 -33.87891,-20.65234 -17.73594,-5.98574 -36.71188,-7.23599 -55.68164,-7.11914 z"
           id="path4198"
           inkscape:connector-curvature="0"
           sodipodi:nodetypes="ssssssscssssssscccss" />
      </g>
    </g>
  </g>
</svg>
